<svg id="Layer_1" data-name="Layer 1" xmlns="http://www.w3.org/2000/svg" viewBox="0 0 209 100"><path d="M50.81,51.91a5.51,5.51,0,0,1-3.27-.74c-.3-.3-.94-3-1.84-7.29a42.46,42.46,0,0,0-8.22-.94c-1,0-1.94.05-2.83.1a79.82,79.82,0,0,0-2.23,8c-.25,1.24-1.83,1.68-3.47,1.68-2,0-2.74-4.29-2.74-4.81s-.63-1.27.64-5.72a36.87,36.87,0,0,1,2.25-5.33c3.37-10.6,8.18-25.08,10-26a3.25,3.25,0,0,1,1.29-.3c1.49,0,2.78,1.09,4.21,1.09.3,0,.65-.05,1-.05a1.66,1.66,0,0,1,1.14.3C48.28,13.5,55.57,49,55.57,50.47,55.57,51.42,53,51.91,50.81,51.91ZM42,23.76a101.43,101.43,0,0,0-5.16,12.69,36.46,36.46,0,0,1,7.59.69C43.18,30.35,42,23.76,42,23.76Z"/><path d="M88.72,18.54c0,6-4,14.37-5.1,15a1.7,1.7,0,0,1-.89.2c-2.18,0-6.2-2.53-6.2-4.16a.83.83,0,0,1,.25-.65c1.88-2,6.1-8.37,6.1-10.21,0-.34-.15-.54-.45-.54-1.69,0-7.39,5.2-9.12,6.94-3,3-5.11,6.24-5.11,7.78,0,1,.5,1.34,6.89,1.78s11,2.78,11,7.49c0,6-5.11,11.1-12.74,11.1a18.27,18.27,0,0,1-11.2-3.47,5.38,5.38,0,0,1-.9-3.12c0-.79.3-1.69,1.09-1.69a1.3,1.3,0,0,1,.55.15,21.78,21.78,0,0,0,8.18,1.39c5,0,10.06-2.63,10.06-4.51-.15-2.58-15.66,2.18-20-6.2a4.88,4.88,0,0,1-.44-2.13c0-3.71,2.87-9.37,6.64-13s10.11-8.38,15.52-8.38a7.88,7.88,0,0,1,2.87.5C87.93,13.63,88.72,15.86,88.72,18.54Z"/><path d="M117.23,42.73a2.82,2.82,0,0,1-.65,2c-4.51,4.75-11.4,7.88-14.72,7.88-2.23,0-6.09-2.38-6.39-3.57a63.76,63.76,0,0,1-1.54-13.88c-2-.74-2.67-3.57-2.67-5.06,0-1.09.54-1.29,1.63-1.29a6.18,6.18,0,0,1,1,.05c.15-6.59.9-11.35,1.84-13.82.69-1.89,6.74-2.24,11.35-2.24a47.58,47.58,0,0,1,5.1.2c1.74.25,4.07,2.63,4.07,4.17,0,.59-.35,1-1.24,1-2.88.15-10.26.94-12.54,2-.2,2.23-.35,5.55-.45,8.57h.5c2.77,0,6.49-1.09,9.61-2.23h.1c.6,0,1.09,1.14,1.09,2.23,0,4.07-8.27,5.8-11.35,6.4,0,2.63.2,7.33.3,10.56,4.61-.4,11.1-3.37,13.93-5.26a.17.17,0,0,0,.1-.05c.15,0,.29.15.44.35A3.68,3.68,0,0,1,117.23,42.73Z"/><path d="M148.14,45a1.84,1.84,0,0,1-.74,1.64C142.3,49.91,137,52.24,133,52.24c-2.18,0-6.45-2.28-6.74-3.52a57.44,57.44,0,0,1-1.59-13.83c0-6.59,1-19.18,2-21.56.45-1.09,3-2.13,4.86-2.13s2.33.84,2.33,3.71c0,4.27-1.24,12.3-1.24,24a43.7,43.7,0,0,0,.4,6.5h.49A41.28,41.28,0,0,0,147,42.47s.09,0,.09,0,.3.15.45.35A3.92,3.92,0,0,1,148.14,45Z"/><path d="M178.2,51.34a5.65,5.65,0,0,1-3.32-.75c-.29-.3-1-3.67-1.93-8a42.57,42.57,0,0,0-8.23-.94c-1,0-1.93,0-2.82.1a77.16,77.16,0,0,0-2.23,8c-.25,1.24-1.84,1.68-3.47,1.68-2,0-3.52-.64-3.52-1.68a39.47,39.47,0,0,1,1.63-7.39c-.79,0-3.71-2.53-3.71-4.81,0-1.53,2.92-1.68,5.75-2,3.37-10.56,8.12-23.34,9.81-24.48a15.44,15.44,0,0,1,6.1-1.84,2.06,2.06,0,0,1,1.24.35c1.58,1.49,9.41,38.81,9.41,40.25C182.91,50.79,180.44,51.34,178.2,51.34Zm-8.92-28.85a100.16,100.16,0,0,0-5.15,12.69,36,36,0,0,1,7.58.69C170.42,29.08,169.28,22.49,169.28,22.49Z"/><path d="M40.17,62c0,4-1.76,8.65-4.31,10.53a7.85,7.85,0,0,1-3.67,1.54c0,.55-1.14.62-1.39.64a4.62,4.62,0,0,1-.65,0c-.61,0-1.21-.17-1.33-.62A46.38,46.38,0,0,1,27.8,64a43.5,43.5,0,0,1,.25-4.81,1.51,1.51,0,0,1-.45,0c-.05,0-2.6-1.28-2.6-2.62,0-.72,3.74-1.79,7-1.79,2.78,0,5.48.4,6.77,2.11A8.28,8.28,0,0,1,40.17,62Zm-6.1-3.87c-.59,0-1.26.08-2,.15-.15,1.56-.27,4.54-.27,6.37,0,1.19.07,3.32.15,5.48a3,3,0,0,0,1.61-.57c2.08-1.39,3.27-5.25,3.27-8.06A4.65,4.65,0,0,0,36.35,59,2.49,2.49,0,0,0,34.07,58.12Z"/><path d="M53.72,75.05a2.85,2.85,0,0,1-1.66-.37,25.8,25.8,0,0,1-1-4A20.91,20.91,0,0,0,47,70.22c-.49,0-1,0-1.41,0-.54,1.76-1,3.24-1.12,4s-.91.85-1.73.85c-1,0-1.76-.33-1.76-.85a19.45,19.45,0,0,1,.82-3.69,3.15,3.15,0,0,1-1.86-2.4c0-.77,1.46-.85,2.87-1C44.48,61.92,46.86,55.52,47.7,55a7.91,7.91,0,0,1,3-.92,1,1,0,0,1,.62.18c.79.74,4.71,19.4,4.71,20.12C56.08,74.78,54.84,75.05,53.72,75.05ZM49.26,60.63A49.64,49.64,0,0,0,46.69,67a18.32,18.32,0,0,1,3.79.35C49.83,63.92,49.26,60.63,49.26,60.63Z"/><path d="M70.85,57.38c0,3-2,7.19-2.55,7.51a.93.93,0,0,1-.45.1c-1.09,0-3.1-1.27-3.1-2.08a.42.42,0,0,1,.13-.33c.94-1,3-4.18,3-5.1,0-.17-.07-.27-.22-.27-.84,0-3.69,2.6-4.56,3.47-1.49,1.48-2.55,3.12-2.55,3.89,0,.49.25.67,3.44.89s5.51,1.39,5.51,3.74c0,3-2.56,5.55-6.37,5.55A9.2,9.2,0,0,1,57.56,73a2.76,2.76,0,0,1-.44-1.56c0-.4.15-.85.54-.85a.67.67,0,0,1,.28.08,10.87,10.87,0,0,0,4.09.69c2.5,0,5-1.31,5-2.25-.08-1.29-7.83,1.09-10-3.1A2.41,2.41,0,0,1,56.85,65c0-1.85,1.43-4.68,3.32-6.51s5-4.19,7.75-4.19a3.83,3.83,0,0,1,1.44.25C70.45,54.93,70.85,56,70.85,57.38Z"/><path d="M84.5,57.38c0,3-2,7.19-2.55,7.51a.87.87,0,0,1-.44.1c-1.1,0-3.1-1.27-3.1-2.08a.41.41,0,0,1,.12-.33c.94-1,3-4.18,3-5.1,0-.17-.07-.27-.22-.27-.85,0-3.7,2.6-4.56,3.47-1.49,1.48-2.56,3.12-2.56,3.89,0,.49.25.67,3.45.89s5.5,1.39,5.5,3.74c0,3-2.55,5.55-6.37,5.55A9.16,9.16,0,0,1,71.22,73a2.76,2.76,0,0,1-.45-1.56c0-.4.15-.85.55-.85a.67.67,0,0,1,.27.08,10.94,10.94,0,0,0,4.09.69c2.5,0,5-1.31,5-2.25-.07-1.29-7.83,1.09-10-3.1A2.55,2.55,0,0,1,70.5,65c0-1.85,1.44-4.68,3.32-6.51s5.06-4.19,7.76-4.19a3.86,3.86,0,0,1,1.44.25C84.11,54.93,84.5,56,84.5,57.38Z"/><path d="M98,75.05a2.81,2.81,0,0,1-1.66-.37,26.52,26.52,0,0,1-1-4,20.89,20.89,0,0,0-4.11-.47c-.5,0-1,0-1.41,0a40.29,40.29,0,0,0-1.12,4c-.12.62-.92.85-1.73.85-1,0-1.76-.33-1.76-.85a20,20,0,0,1,.81-3.69,3.16,3.16,0,0,1-1.85-2.4c0-.77,1.46-.85,2.87-1C88.77,61.92,91.15,55.52,92,55A7.86,7.86,0,0,1,95,54a1,1,0,0,1,.62.18c.79.74,4.7,19.4,4.7,20.12C100.36,74.78,99.13,75.05,98,75.05ZM93.55,60.63A50.91,50.91,0,0,0,91,67a18.32,18.32,0,0,1,3.79.35C94.12,63.92,93.55,60.63,93.55,60.63Z"/><path d="M113.35,74.88c0,.34-.3.44-.72.44a3.3,3.3,0,0,1-2.28-1c-.25-.6-4.81-10.19-4.81-10.19a49.12,49.12,0,0,0-.62,7.56c0,1.12.15,2.21.15,3.27a.5.5,0,0,1-.52.47c-.52,0-2.72-1.29-2.77-2.6,0-.89,0-1.91,0-3,0-4.31.25-9.94.59-13.18a2.3,2.3,0,0,1,2.46-1.94c.49,0,.89.13,1,.35.3.65,5.06,11.5,5.06,11.5-.1-1.06-.13-2.23-.13-3.39a66.64,66.64,0,0,1,.55-8.51c.07-.44.3-.64.64-.64.9,0,2.8,1,2.8,1.86v.07C113.85,60.58,113.52,70.07,113.35,74.88Z"/><path d="M128.86,75.05a2.85,2.85,0,0,1-1.66-.37,27.19,27.19,0,0,1-1-4,20.91,20.91,0,0,0-4.12-.47c-.49,0-1,0-1.41,0a39.54,39.54,0,0,0-1.11,4c-.13.62-.92.85-1.74.85-1,0-1.76-.33-1.76-.85a19.45,19.45,0,0,1,.82-3.69,3.15,3.15,0,0,1-1.86-2.4c0-.77,1.46-.85,2.87-1,1.69-5.27,4.07-11.67,4.91-12.24a7.91,7.91,0,0,1,3-.92,1,1,0,0,1,.62.18c.79.74,4.71,19.4,4.71,20.12C131.22,74.78,130,75.05,128.86,75.05ZM124.4,60.63A49.64,49.64,0,0,0,121.83,67a18.32,18.32,0,0,1,3.79.35C125,63.92,124.4,60.63,124.4,60.63Z"/><path d="M143.19,55.5c0,1.19-3.72,10.06-4.44,11.94-.05.92-.05,1.81-.05,2.68a27.24,27.24,0,0,0,.23,4c0,.3-1,.64-2.09.64-.71,0-1.41-.14-1.53-.62a27.85,27.85,0,0,1-.8-6.79c-1-1.86-4.38-9.76-4.38-11.1,0-.74,2.13-1.78,3.05-1.78.24,0,.42.07.44.24.18,2,2.83,7.76,3.2,8.41,0,0,2.58-7.61,3.32-8.41a.8.8,0,0,1,.47-.1,4.29,4.29,0,0,1,2.55.77A1.3,1.3,0,0,1,143.19,55.5Z"/><path d="M154,75.05a2.81,2.81,0,0,1-1.66-.37,26.52,26.52,0,0,1-1-4,20.89,20.89,0,0,0-4.11-.47c-.5,0-1,0-1.41,0a37.67,37.67,0,0,0-1.12,4c-.12.62-.92.85-1.73.85-1,0-1.76-.33-1.76-.85a20,20,0,0,1,.81-3.69,3.17,3.17,0,0,1-1.86-2.4c0-.77,1.47-.85,2.88-1C144.72,61.92,147.1,55.52,148,55a7.86,7.86,0,0,1,3-.92,1,1,0,0,1,.62.18c.8.74,4.71,19.4,4.71,20.12C156.32,74.78,155.08,75.05,154,75.05Zm-4.46-14.42A50.91,50.91,0,0,0,146.93,67a18.32,18.32,0,0,1,3.79.35C150.08,63.92,149.51,60.63,149.51,60.63Z"/><path d="M164.72,66.67a9.26,9.26,0,0,0,1.34,4c2.11,2.73,4,2,4,2.85s-.34,1.36-1.83,1.36a6.21,6.21,0,0,1-4-1.51,11.47,11.47,0,0,1-2.82-4.58c.05,2,.12,4.11.3,5.35,0,.27-1,.64-2,.64-.64,0-1.19-.17-1.31-.62a44,44,0,0,1-1-9.86,37.11,37.11,0,0,1,1-9.49c.15-.42.55-.55,1-.55a2.51,2.51,0,0,1,2.4,2.28v.2a81.75,81.75,0,0,0-.42,8.58c1.34-.55,5.18-3.42,5.82-10.39,0-.3.35-.44.77-.44,1,0,2.5.69,2.5,1.46C169.93,62.26,165.49,66.3,164.72,66.67Z"/><path d="M183.46,69.8a1.39,1.39,0,0,1-.32,1c-2.26,2.38-5.7,3.94-7.36,3.94-1.12,0-3.05-1.19-3.2-1.79a31.54,31.54,0,0,1-.77-6.94c-1-.37-1.34-1.78-1.34-2.52,0-.55.28-.65.82-.65a2.69,2.69,0,0,1,.5,0,23.43,23.43,0,0,1,.91-6.92c.35-.94,3.37-1.11,5.68-1.11a23.87,23.87,0,0,1,2.55.1A2.81,2.81,0,0,1,183,57c0,.3-.17.49-.62.52a27.5,27.5,0,0,0-6.27,1c-.09,1.12-.17,2.78-.22,4.29h.25a15.8,15.8,0,0,0,4.81-1.12H181c.29,0,.54.57.54,1.12,0,2-4.14,2.9-5.67,3.19,0,1.32.1,3.67.15,5.28a18.29,18.29,0,0,0,7-2.62s.05,0,.05,0,.15.08.22.18A1.77,1.77,0,0,1,183.46,69.8Z"/><path d="M38.35,90.49c7.08-4,15.34-4.82,23.31-5.48a251.25,251.25,0,0,1,27.15-1.27c17.68.45,35,5.37,52.75,4.81,9-.28,17.92-2,25.94-6.11,1.1-.56.13-2.2-1-1.64-15.23,7.83-33,6.33-49.39,4.08-8.93-1.22-17.85-2.66-26.87-3A228.52,228.52,0,0,0,63.1,83c-8.78.73-17.9,1.39-25.71,5.87a1,1,0,0,0,1,1.64Z"/><path d="M175.8,80.51a1,1,0,0,0,0-1.9,1,1,0,0,0,0,1.9Z"/></svg>